<?xml version="1.0" encoding="UTF-8" standalone="no"?>
<svg width="20px" height="20px" viewBox="0 0 20 20" version="1.1" xmlns="http://www.w3.org/2000/svg" xmlns:xlink="http://www.w3.org/1999/xlink">
    <!-- Generator: Sketch 3.7.2 (28276) - http://www.bohemiancoding.com/sketch -->
    <title>github_black-01</title>
    <desc>Created with Sketch.</desc>
    <defs></defs>
    <g id="social-login" stroke="none" stroke-width="1" fill="none" fill-rule="evenodd">
        <g id="Profile-Loggedin-Connected" transform="translate(-434.000000, -413.000000)" fill="#000000">
            <g id="github_black-01" transform="translate(434.000000, 413.000000)">
                <g id="Layer_1">
                    <g id="Group">
                        <path d="M10,0.008 C4.476,0.008 0,4.484 0,10.008 C0,14.428 2.864,18.176 6.84,19.496 C7.34,19.588 7.524,19.28 7.524,19.016 C7.524,18.776 7.516,17.988 7.512,17.156 C4.732,17.76 4.144,15.976 4.144,15.976 C3.688,14.82 3.032,14.512 3.032,14.512 C2.124,13.892 3.1,13.904 3.1,13.904 C4.104,13.976 4.632,14.936 4.632,14.936 C5.524,16.464 6.972,16.024 7.544,15.768 C7.632,15.12 7.892,14.68 8.18,14.432 C5.96,14.18 3.624,13.32 3.624,9.488 C3.624,8.396 4.016,7.504 4.656,6.804 C4.552,6.552 4.208,5.536 4.752,4.156 C4.752,4.156 5.592,3.888 7.504,5.18 C8.3,4.96 9.156,4.848 10.008,4.844 C10.856,4.848 11.712,4.96 12.512,5.18 C14.42,3.888 15.26,4.156 15.26,4.156 C15.804,5.532 15.46,6.552 15.36,6.804 C16,7.504 16.388,8.396 16.388,9.488 C16.388,13.328 14.048,14.176 11.82,14.424 C12.18,14.736 12.5,15.344 12.5,16.276 C12.5,17.616 12.488,18.692 12.488,19.02 C12.488,19.288 12.668,19.596 13.176,19.5 C17.14,18.172 20,14.424 20,10.008 C20,4.484 15.524,0.008 10,0.008 L10,0.008 Z" id="Shape"></path>
                        <path id="Shape"></path>
                        <path d="M4.37757136,14.9984399 C4.29548686,15.0711912 4.13815825,15.0381224 4.02871226,14.9190749 C3.91926626,14.8066411 3.89874514,14.6479111 3.98082963,14.5751598 C4.06291413,14.5024086 4.22024274,14.5354773 4.32968874,14.6545249 C4.43913473,14.7735724 4.46649623,14.9256886 4.37757136,14.9984399 L4.37757136,14.9984399 L4.37757136,14.9984399 Z" id="Shape"></path>
                        <path id="Shape"></path>
                        <path d="M5.24517212,16.067015 C5.16999304,16.1485215 5.01426494,16.1267865 4.90149632,16.0126773 C4.78335776,15.904002 4.75113816,15.7464227 4.82631724,15.6649162 C4.90149632,15.5834097 5.05722442,15.6051448 5.17536297,15.7192539 C5.2881316,15.8279293 5.3203512,15.9855085 5.24517212,16.067015 L5.24517212,16.067015 L5.24517212,16.067015 Z" id="Shape"></path>
                        <path d="M5.95028152,16.4053295 C5.92177003,16.5342639 5.78871637,16.5858376 5.65566272,16.5342639 C5.52260907,16.4762434 5.43232266,16.3344156 5.46083416,16.2054813 C5.48934565,16.0765469 5.62239931,16.0185265 5.76020488,16.0765469 C5.88850661,16.1281207 5.97879302,16.2763952 5.95028152,16.4053295 L5.95028152,16.4053295 L5.95028152,16.4053295 Z" id="Shape"></path>
                        <path d="M6.76385913,16.4310816 C6.76853071,16.572808 6.65641278,16.6875389 6.51626536,16.6875389 C6.37611794,16.6942878 6.264,16.5795569 6.264,16.4445794 C6.264,16.302853 6.37144636,16.1881221 6.51159378,16.1881221 C6.64706962,16.1813733 6.76385913,16.2893553 6.76385913,16.4310816 L6.76385913,16.4310816 L6.76385913,16.4310816 Z" id="Shape"></path>
                        <path id="Shape"></path>
                    </g>
                </g>
            </g>
        </g>
    </g>
</svg>